<svg width="76" height="14" viewBox="0 0 76 14" fill="none" xmlns="http://www.w3.org/2000/svg">
<path d="M0 10.4156V0.0758247H6.86503V2.19202H2.54635V4.17036H6.57567V6.28656H2.54635V10.4156H0Z" fill="white"/>
<path d="M10.3446 10.4156H7.97183V3.5224H10.0335L10.1131 4.65977C10.3542 4.25537 10.6749 3.94289 11.0752 3.7223C11.4755 3.49713 11.9336 3.38454 12.4496 3.38454C12.6088 3.38454 12.7704 3.39603 12.9343 3.41901C13.1031 3.44198 13.2719 3.47645 13.4407 3.5224L13.1513 5.55588C12.8138 5.45478 12.4979 5.40423 12.2037 5.40423C11.8275 5.40423 11.4996 5.48236 11.2199 5.6386C10.9402 5.79485 10.7231 6.01313 10.5688 6.29345C10.4193 6.57377 10.3446 6.90464 10.3446 7.28607V10.4156Z" fill="white"/>
<path d="M21.0653 9.6642C20.1635 10.257 19.1821 10.5534 18.1211 10.5534C17.3205 10.5534 16.5995 10.3926 15.9581 10.0709C15.3215 9.74463 14.8176 9.30346 14.4462 8.74741C14.0749 8.18677 13.8892 7.5572 13.8892 6.85869C13.8892 6.19235 14.0556 5.59954 14.3883 5.08026C14.7211 4.55638 15.1744 4.14279 15.7483 3.83949C16.3271 3.53619 16.9805 3.38454 17.7087 3.38454C18.4659 3.38454 19.1314 3.55227 19.7053 3.88774C20.2792 4.22321 20.7253 4.68964 21.0436 5.28705C21.3667 5.87986 21.5283 6.56918 21.5283 7.355V7.57558H16.4356C16.5224 7.80075 16.6526 8.00066 16.8262 8.17528C17.0046 8.34991 17.2265 8.49007 17.4917 8.59577C17.757 8.69687 18.0608 8.74741 18.4032 8.74741C19.1121 8.74741 19.7777 8.52913 20.3998 8.09256L21.0653 9.6642ZM16.3343 6.55539H19.3436C19.3147 6.29805 19.2327 6.07057 19.0977 5.87297C18.9626 5.67536 18.7842 5.52142 18.5623 5.41113C18.3453 5.30084 18.1018 5.24569 17.8317 5.24569C17.5568 5.24569 17.3133 5.30543 17.1011 5.42491C16.8937 5.5398 16.7225 5.69604 16.5875 5.89365C16.4573 6.08666 16.3729 6.30724 16.3343 6.55539Z" fill="white"/>
<path d="M29.5001 9.6642C28.5983 10.257 27.6169 10.5534 26.5559 10.5534C25.7553 10.5534 25.0343 10.3926 24.3929 10.0709C23.7563 9.74463 23.2524 9.30346 22.881 8.74741C22.5097 8.18677 22.324 7.5572 22.324 6.85869C22.324 6.19235 22.4904 5.59954 22.8231 5.08026C23.1559 4.55638 23.6092 4.14279 24.1831 3.83949C24.7619 3.53619 25.4153 3.38454 26.1435 3.38454C26.9007 3.38454 27.5662 3.55227 28.1401 3.88774C28.714 4.22321 29.1601 4.68964 29.4784 5.28705C29.8015 5.87986 29.9631 6.56918 29.9631 7.355V7.57558H24.8704C24.9572 7.80075 25.0874 8.00066 25.261 8.17528C25.4394 8.34991 25.6613 8.49007 25.9265 8.59577C26.1918 8.69687 26.4956 8.74741 26.838 8.74741C27.5469 8.74741 28.2125 8.52913 28.8346 8.09256L29.5001 9.6642ZM24.7691 6.55539H27.7784C27.7495 6.29805 27.6675 6.07057 27.5325 5.87297C27.3974 5.67536 27.219 5.52142 26.9971 5.41113C26.7801 5.30084 26.5366 5.24569 26.2665 5.24569C25.9916 5.24569 25.7481 5.30543 25.5359 5.42491C25.3285 5.5398 25.1573 5.69604 25.0223 5.89365C24.8921 6.08666 24.8077 6.30724 24.7691 6.55539Z" fill="white"/>
<path d="M37.3562 10.5258C36.7148 10.5258 36.1433 10.3719 35.6417 10.064C35.1402 9.75152 34.7447 9.32644 34.4554 8.78877C34.1708 8.25111 34.0286 7.63991 34.0286 6.95519C34.0286 6.26588 34.1708 5.65469 34.4554 5.12161C34.7447 4.58395 35.1402 4.16117 35.6417 3.85327C36.1433 3.54078 36.7148 3.38454 37.3562 3.38454C37.8529 3.38454 38.3087 3.47875 38.7234 3.66716C39.1381 3.85098 39.495 4.11062 39.794 4.44609L39.9025 3.5224H41.9787V10.2226C41.9787 10.9762 41.7978 11.6379 41.4361 12.2078C41.0793 12.7776 40.5753 13.2188 39.9242 13.5313C39.2732 13.8438 38.5112 14 37.6383 14C36.4423 14 35.3427 13.6507 34.3396 12.9522L35.28 11.098C35.9166 11.6816 36.6448 11.9734 37.4647 11.9734C37.8891 11.9734 38.2604 11.8953 38.5787 11.739C38.9018 11.5874 39.1526 11.3714 39.3311 11.0911C39.5143 10.8108 39.6059 10.4891 39.6059 10.126V9.65042C39.3166 9.92614 38.9814 10.1421 38.6004 10.2984C38.2194 10.45 37.8047 10.5258 37.3562 10.5258ZM38.0362 8.50615C38.3304 8.50615 38.5956 8.44641 38.8319 8.32693C39.0682 8.20745 39.2563 8.03972 39.3962 7.82373C39.536 7.60775 39.6059 7.36419 39.6059 7.09306V6.80354C39.6059 6.53241 39.5336 6.29115 39.3889 6.07976C39.2491 5.86837 39.061 5.70294 38.8247 5.58346C38.5884 5.46397 38.3255 5.40423 38.0362 5.40423C37.7372 5.40423 37.4671 5.47087 37.226 5.60414C36.9848 5.7374 36.7943 5.92122 36.6545 6.15559C36.5195 6.38996 36.4519 6.65649 36.4519 6.95519C36.4519 7.2539 36.5195 7.52043 36.6545 7.7548C36.7943 7.98917 36.9848 8.17299 37.226 8.30625C37.4671 8.43952 37.7372 8.50615 38.0362 8.50615Z" fill="white"/>
<path d="M50.739 10.4156H48.8437L48.7641 9.31265C48.5134 9.71705 48.1782 10.0249 47.7586 10.2363C47.339 10.4477 46.8495 10.5534 46.2901 10.5534C45.3786 10.5534 44.6649 10.2846 44.1489 9.74692C43.6328 9.20926 43.3748 8.46709 43.3748 7.52043V3.5224H45.7476V6.9483C45.7476 7.4492 45.8609 7.83752 46.0876 8.11324C46.3142 8.38897 46.6277 8.52683 47.028 8.52683C47.4476 8.52683 47.7755 8.38438 48.0118 8.09946C48.2481 7.81454 48.3663 7.42163 48.3663 6.92073V3.5224H50.739V10.4156Z" fill="white"/>
<path d="M53.5313 2.04727C53.2323 2.04727 52.9791 1.94847 52.7718 1.75086C52.5692 1.54866 52.4679 1.3051 52.4679 1.02019C52.4679 0.739865 52.5692 0.500903 52.7718 0.303299C52.9791 0.1011 53.2323 0 53.5313 0C53.8351 0 54.0907 0.1011 54.2981 0.303299C54.5055 0.500903 54.6092 0.739865 54.6092 1.02019C54.6092 1.3051 54.5055 1.54866 54.2981 1.75086C54.0907 1.94847 53.8351 2.04727 53.5313 2.04727ZM54.7249 10.4156H52.3522V3.5224H54.7249V10.4156Z" fill="white"/>
<path d="M63.9193 10.4156H61.8359L61.7129 9.49877C61.4187 9.82504 61.0619 10.0824 60.6423 10.2708C60.2227 10.4592 59.7694 10.5534 59.2823 10.5534C58.6361 10.5534 58.0598 10.3995 57.5534 10.0916C57.0518 9.77909 56.6564 9.35401 56.367 8.81635C56.0777 8.27409 55.933 7.6583 55.933 6.96898C55.933 6.27966 56.0777 5.66617 56.367 5.12851C56.6564 4.58625 57.0518 4.16117 57.5534 3.85327C58.0598 3.54078 58.6361 3.38454 59.2823 3.38454C59.7308 3.38454 60.148 3.46266 60.5338 3.61891C60.9196 3.77056 61.2572 3.98424 61.5465 4.25997V0.0758247H63.9193V10.4156ZM59.9623 8.52683C60.2517 8.52683 60.5169 8.46709 60.758 8.34761C60.9992 8.22353 61.1897 8.0535 61.3295 7.83752C61.4742 7.61694 61.5465 7.36649 61.5465 7.08616V6.83112C61.5465 6.55539 61.4742 6.31183 61.3295 6.10044C61.1897 5.88446 60.9992 5.71443 60.758 5.59035C60.5169 5.46627 60.2517 5.40423 59.9623 5.40423C59.6537 5.40423 59.3788 5.47317 59.1376 5.61103C58.8965 5.7443 58.706 5.93041 58.5662 6.16937C58.4311 6.40374 58.3636 6.67028 58.3636 6.96898C58.3636 7.26768 58.4311 7.53652 58.5662 7.77548C58.706 8.00985 58.8965 8.19366 59.1376 8.32693C59.3788 8.4602 59.6537 8.52683 59.9623 8.52683Z" fill="white"/>
<path d="M72.2962 9.6642C71.3944 10.257 70.413 10.5534 69.352 10.5534C68.5514 10.5534 67.8304 10.3926 67.189 10.0709C66.5524 9.74463 66.0485 9.30346 65.6771 8.74741C65.3058 8.18677 65.1201 7.5572 65.1201 6.85869C65.1201 6.19235 65.2865 5.59954 65.6193 5.08026C65.952 4.55638 66.4054 4.14279 66.9792 3.83949C67.558 3.53619 68.2114 3.38454 68.9397 3.38454C69.6968 3.38454 70.3623 3.55227 70.9362 3.88774C71.5101 4.22321 71.9562 4.68964 72.2745 5.28705C72.5976 5.87986 72.7592 6.56918 72.7592 7.355V7.57558H67.6665C67.7533 7.80075 67.8835 8.00066 68.0571 8.17528C68.2355 8.34991 68.4574 8.49007 68.7226 8.59577C68.9879 8.69687 69.2917 8.74741 69.6341 8.74741C70.343 8.74741 71.0086 8.52913 71.6307 8.09256L72.2962 9.6642ZM67.5652 6.55539H70.5745C70.5456 6.29805 70.4636 6.07057 70.3286 5.87297C70.1935 5.67536 70.0151 5.52142 69.7933 5.41113C69.5762 5.30084 69.3327 5.24569 69.0626 5.24569C68.7877 5.24569 68.5442 5.30543 68.332 5.42491C68.1246 5.5398 67.9534 5.69604 67.8184 5.89365C67.6882 6.08666 67.6038 6.30724 67.5652 6.55539Z" fill="white"/>
<path d="M75.5949 7.54801H74.2711L73.9673 0.0758247H75.8987L75.5949 7.54801ZM74.9294 10.5534C74.6255 10.5534 74.3724 10.4569 74.1698 10.2639C73.9673 10.0709 73.866 9.83653 73.866 9.56081C73.866 9.28508 73.9673 9.05071 74.1698 8.85771C74.3724 8.6647 74.6255 8.56819 74.9294 8.56819C75.2332 8.56819 75.4864 8.6647 75.6889 8.85771C75.8963 9.05071 76 9.28508 76 9.56081C76 9.83653 75.8963 10.0709 75.6889 10.2639C75.4864 10.4569 75.2332 10.5534 74.9294 10.5534Z" fill="white"/>
</svg>
