<svg width="16" height="17" viewBox="0 0 16 17" fill="none" xmlns="http://www.w3.org/2000/svg">
<path d="M6.06004 6.49992C6.21678 6.05436 6.52614 5.67866 6.93334 5.43934C7.34055 5.20002 7.8193 5.11254 8.28483 5.19239C8.75035 5.27224 9.17259 5.51427 9.47676 5.8756C9.78093 6.23694 9.94741 6.69427 9.94671 7.16659C9.94671 8.49992 7.94671 9.16659 7.94671 9.16659M8.00004 11.8333H8.00671M14.6667 8.49992C14.6667 12.1818 11.6819 15.1666 8.00004 15.1666C4.31814 15.1666 1.33337 12.1818 1.33337 8.49992C1.33337 4.81802 4.31814 1.83325 8.00004 1.83325C11.6819 1.83325 14.6667 4.81802 14.6667 8.49992Z" stroke="#98A2B3" stroke-width="1.33333" stroke-linecap="round" stroke-linejoin="round"/>
</svg>
